<svg width="34" height="39" viewBox="0 0 34 39" fill="none" xmlns="http://www.w3.org/2000/svg">
<g clip-path="url(#clip0_68_284)">
<path d="M17.003 10.7404C12.1775 10.7404 8.28522 14.648 8.28522 19.4925C8.28522 24.3371 12.1775 28.2447 17.003 28.2447C21.8284 28.2447 25.7207 24.3371 25.7207 19.4925C25.7207 14.648 21.8284 10.7404 17.003 10.7404ZM17.003 25.1826C13.8846 25.1826 11.3353 22.6308 11.3353 19.4925C11.3353 16.3542 13.877 13.8025 17.003 13.8025C20.1289 13.8025 22.6706 16.3542 22.6706 19.4925C22.6706 22.6308 20.1213 25.1826 17.003 25.1826ZM28.1107 10.3824C28.1107 11.5173 27.2002 12.4238 26.0773 12.4238C24.9468 12.4238 24.0439 11.5097 24.0439 10.3824C24.0439 9.25503 24.9544 8.34097 26.0773 8.34097C27.2002 8.34097 28.1107 9.25503 28.1107 10.3824ZM33.8846 12.4542C33.7556 9.71968 33.1334 7.29741 31.138 5.30171C29.1501 3.30601 26.7374 2.6814 24.0136 2.54429C21.2063 2.38433 12.792 2.38433 9.98476 2.54429C7.26853 2.67378 4.85579 3.29839 2.86034 5.29409C0.864898 7.28979 0.250332 9.71206 0.113762 12.4466C-0.0455703 15.265 -0.0455703 23.7125 0.113762 26.5308C0.242745 29.2654 0.864898 31.6876 2.86034 33.6833C4.85579 35.6791 7.26094 36.3037 9.98476 36.4408C12.792 36.6007 21.2063 36.6007 24.0136 36.4408C26.7374 36.3113 29.1501 35.6867 31.138 33.6833C33.1258 31.6876 33.748 29.2654 33.8846 26.5308C34.0439 23.7125 34.0439 15.2726 33.8846 12.4542ZM30.2579 29.5548C29.6661 31.0478 28.5204 32.198 27.0257 32.7998C24.7875 33.691 19.4764 33.4853 17.003 33.4853C14.5295 33.4853 9.21086 33.6833 6.98021 32.7998C5.49311 32.2056 4.34744 31.0554 3.74805 29.5548C2.86034 27.3078 3.0652 21.9757 3.0652 19.4925C3.0652 17.0093 2.86793 11.6697 3.74805 9.43022C4.33985 7.93726 5.48553 6.78706 6.98021 6.1853C9.21845 5.29409 14.5295 5.49976 17.003 5.49976C19.4764 5.49976 24.795 5.30171 27.0257 6.1853C28.5128 6.77944 29.6585 7.92964 30.2579 9.43022C31.1456 11.6773 30.9407 17.0093 30.9407 19.4925C30.9407 21.9757 31.1456 27.3154 30.2579 29.5548Z" fill="white"/>
</g>
<defs>
<clipPath id="clip0_68_284">
<rect width="33.9908" height="39" fill="white"/>
</clipPath>
</defs>
</svg>
